<svg width="16" height="17" viewBox="0 0 16 17" fill="none" xmlns="http://www.w3.org/2000/svg">
<g id="bell-03">
<g id="Icon">
<path d="M11.9998 7.96671C11.9998 7.04729 11.5784 6.16553 10.8282 5.5154C10.0781 4.86528 9.06068 4.50004 7.99981 4.50004C6.93895 4.50004 5.92153 4.86528 5.17139 5.5154C4.42124 6.16553 3.99981 7.04729 3.99981 7.96671C3.99981 9.48791 3.62257 10.6004 3.15186 11.3965C2.61537 12.3038 2.34713 12.7574 2.35772 12.8658C2.36984 12.9898 2.39216 13.0289 2.49271 13.1024C2.58059 13.1667 3.02215 13.1667 3.90527 13.1667H12.0944C12.9775 13.1667 13.419 13.1667 13.5069 13.1024C13.6075 13.0289 13.6298 12.9898 13.6419 12.8658C13.6525 12.7574 13.3843 12.3038 12.8478 11.3965C12.3771 10.6004 11.9998 9.48791 11.9998 7.96671Z" fill="#667085"/>
<path d="M9.99981 13.1667C9.99981 14.2713 9.10438 15.1667 7.99981 15.1667C6.89524 15.1667 5.99981 14.2713 5.99981 13.1667M9.19748 4.65908C9.48781 4.35913 9.66648 3.95045 9.66648 3.50004C9.66648 2.57957 8.92029 1.83337 7.99981 1.83337C7.07934 1.83337 6.33315 2.57957 6.33315 3.50004C6.33315 3.95045 6.51182 4.35913 6.80214 4.65908M11.9998 7.96671C11.9998 7.04729 11.5784 6.16553 10.8282 5.5154C10.0781 4.86528 9.06068 4.50004 7.99981 4.50004C6.93895 4.50004 5.92153 4.86528 5.17139 5.5154C4.42124 6.16553 3.99981 7.04729 3.99981 7.96671C3.99981 9.48791 3.62257 10.6004 3.15186 11.3965C2.61537 12.3038 2.34713 12.7574 2.35772 12.8658C2.36984 12.9898 2.39216 13.0289 2.49271 13.1024C2.58059 13.1667 3.02215 13.1667 3.90527 13.1667H12.0944C12.9775 13.1667 13.419 13.1667 13.5069 13.1024C13.6075 13.0289 13.6298 12.9898 13.6419 12.8658C13.6525 12.7574 13.3843 12.3038 12.8478 11.3965C12.3771 10.6004 11.9998 9.48791 11.9998 7.96671Z" stroke="#667085" stroke-linecap="round" stroke-linejoin="round"/>
</g>
</g>
</svg>
